<svg id="visual" viewBox="0 0 1920 1080" width="1920" height="1080" xmlns="http://www.w3.org/2000/svg" xmlns:xlink="http://www.w3.org/1999/xlink" version="1.1"><rect x="0" y="0" width="1920" height="1080" fill="#30505d"></rect><path d="M0 719L64 700.8C128 682.7 256 646.3 384 615.5C512 584.7 640 559.3 768 573.2C896 587 1024 640 1152 662.3C1280 684.7 1408 676.3 1536 647C1664 617.7 1792 567.3 1856 542.2L1920 517L1920 1081L1856 1081C1792 1081 1664 1081 1536 1081C1408 1081 1280 1081 1152 1081C1024 1081 896 1081 768 1081C640 1081 512 1081 384 1081C256 1081 128 1081 64 1081L0 1081Z" fill="#2a9d8f"></path><path d="M0 743L64 726.7C128 710.3 256 677.7 384 667.7C512 657.7 640 670.3 768 675.7C896 681 1024 679 1152 689.2C1280 699.3 1408 721.7 1536 733C1664 744.3 1792 744.7 1856 744.8L1920 745L1920 1081L1856 1081C1792 1081 1664 1081 1536 1081C1408 1081 1280 1081 1152 1081C1024 1081 896 1081 768 1081C640 1081 512 1081 384 1081C256 1081 128 1081 64 1081L0 1081Z" fill="#118f8d"></path><path d="M0 710L64 729.8C128 749.7 256 789.3 384 806.7C512 824 640 819 768 819C896 819 1024 824 1152 810.5C1280 797 1408 765 1536 763C1664 761 1792 789 1856 803L1920 817L1920 1081L1856 1081C1792 1081 1664 1081 1536 1081C1408 1081 1280 1081 1152 1081C1024 1081 896 1081 768 1081C640 1081 512 1081 384 1081C256 1081 128 1081 64 1081L0 1081Z" fill="#008189"></path><path d="M0 751L64 768.3C128 785.7 256 820.3 384 817.2C512 814 640 773 768 769C896 765 1024 798 1152 817.8C1280 837.7 1408 844.3 1536 839C1664 833.7 1792 816.3 1856 807.7L1920 799L1920 1081L1856 1081C1792 1081 1664 1081 1536 1081C1408 1081 1280 1081 1152 1081C1024 1081 896 1081 768 1081C640 1081 512 1081 384 1081C256 1081 128 1081 64 1081L0 1081Z" fill="#007383"></path><path d="M0 845L64 849.5C128 854 256 863 384 864.7C512 866.3 640 860.7 768 864C896 867.3 1024 879.7 1152 870.5C1280 861.3 1408 830.7 1536 814.2C1664 797.7 1792 795.3 1856 794.2L1920 793L1920 1081L1856 1081C1792 1081 1664 1081 1536 1081C1408 1081 1280 1081 1152 1081C1024 1081 896 1081 768 1081C640 1081 512 1081 384 1081C256 1081 128 1081 64 1081L0 1081Z" fill="#0f657a"></path><path d="M0 961L64 947.7C128 934.3 256 907.7 384 910.2C512 912.7 640 944.3 768 958.8C896 973.3 1024 970.7 1152 958C1280 945.3 1408 922.7 1536 910.2C1664 897.7 1792 895.3 1856 894.2L1920 893L1920 1081L1856 1081C1792 1081 1664 1081 1536 1081C1408 1081 1280 1081 1152 1081C1024 1081 896 1081 768 1081C640 1081 512 1081 384 1081C256 1081 128 1081 64 1081L0 1081Z" fill="#1b576f"></path><path d="M0 942L64 954.2C128 966.3 256 990.7 384 1003.7C512 1016.7 640 1018.3 768 1010.3C896 1002.3 1024 984.7 1152 973.5C1280 962.3 1408 957.7 1536 958C1664 958.3 1792 963.7 1856 966.3L1920 969L1920 1081L1856 1081C1792 1081 1664 1081 1536 1081C1408 1081 1280 1081 1152 1081C1024 1081 896 1081 768 1081C640 1081 512 1081 384 1081C256 1081 128 1081 64 1081L0 1081Z" fill="#224962"></path></svg>